# xmcd
# 
# Track frame offsets:
#     150
#     33427
#     73120
#     103570
#     134957
# 
# Disc length: 2295
# 
# Revision: 3
# Processed by: cddbd v1.5.2PL0 Copyright (c) Steve Scherf et al.
# Submitted via: BonkEnc v1.0.15
# 
DISCID=4908f505
DTITLE=Dexter Gordon - Our Man In Paris
DYEAR=1963
DGENRE=Jazz
TTITLE0=Scrapple From The Apple
TTITLE1=Willow Weep For Me
TTITLE2=Broadway
TTITLE3=Stairway To The Stars
TTITLE4=A Night In Tunisia
EXTD=YEAR: 1963
EXTT0=
EXTT1=
EXTT2=
EXTT3=
EXTT4=
PLAYORDER=
